<?xml version="1.0" encoding="UTF-8" standalone="no"?>
<svg
   xmlns:dc="http://purl.org/dc/elements/1.1/"
   xmlns:cc="http://creativecommons.org/ns#"
   xmlns:rdf="http://www.w3.org/1999/02/22-rdf-syntax-ns#"
   xmlns:svg="http://www.w3.org/2000/svg"
   xmlns="http://www.w3.org/2000/svg"
   xmlns:sodipodi="http://sodipodi.sourceforge.net/DTD/sodipodi-0.dtd"
   xmlns:inkscape="http://www.inkscape.org/namespaces/inkscape"
   width="40"
   height="40"
   viewBox="0 0 40 40"
   id="svg4291"
   version="1.1"
   inkscape:version="0.91 r13725"
   sodipodi:docname="pluginIcon.svg">
  <metadata
     id="metadata4301">
    <rdf:RDF>
      <cc:Work
         rdf:about="">
        <dc:format>image/svg+xml</dc:format>
        <dc:type
           rdf:resource="http://purl.org/dc/dcmitype/StillImage" />
        <dc:title></dc:title>
      </cc:Work>
    </rdf:RDF>
  </metadata>
  <defs
     id="defs4299" />
  <sodipodi:namedview
     pagecolor="#ffffff"
     bordercolor="#666666"
     borderopacity="1"
     objecttolerance="10"
     gridtolerance="10"
     guidetolerance="10"
     inkscape:pageopacity="0"
     inkscape:pageshadow="2"
     inkscape:window-width="2560"
     inkscape:window-height="1416"
     id="namedview4297"
     showgrid="false"
     inkscape:snap-midpoints="true"
     inkscape:object-nodes="true"
     inkscape:object-paths="true"
     inkscape:snap-smooth-nodes="true"
     inkscape:snap-bbox="false"
     inkscape:snap-bbox-midpoints="true"
     inkscape:snap-object-midpoints="true"
     inkscape:zoom="16"
     inkscape:cx="38.56541"
     inkscape:cy="13.136351"
     inkscape:window-x="0"
     inkscape:window-y="24"
     inkscape:window-maximized="1"
     inkscape:current-layer="svg4291" />
  <path
     style="fill:#df2621"
     inkscape:connector-curvature="0"
     id="path4295"
     d="M 6,18.493333 6,26.24 C 6,25.586667 34,24.28 34,21.106667 L 34,13.36 C 34,16.533333 6,17.84 6,18.493333 M 6,15.88 C 6,15.226667 34,13.92 34,10.746667 L 34,3 C 34,6.2666667 6,7.48 6,8.1333333 L 6,15.88 Z M 6,28.853333 6,36.6 C 6,35.946667 34,34.64 34,31.466667 L 34,23.72 C 34,26.893333 6,28.2 6,28.853333" />
  <path
     id="rect5046"
     style="fill:none;fill-opacity:1;stroke:#ffffff;stroke-width:1.5;stroke-miterlimit:4;stroke-dasharray:none"
     d="m 23.390625,28.689816 3.5,0 0,3.5 -3.5,0 z m -10.28125,1.212244 3.5,0 0,3.5 -3.5,0 z m 15.505262,-8.869769 -1.010363,-1.75 1.010363,-1.75 2.020726,0 1.010363,1.75 -1.010363,1.75 z m -9.625,1.46271 -1.010363,-1.75 1.010363,-1.75 2.020726,0 1.010363,1.75 -1.010363,1.75 z m -9.625,0.990208 -1.010363,-1.75 1.010363,-1.750001 2.020726,0 1.010363,1.750001 -1.010363,1.75 z M 31.375,8.921875 a 1.75,1.75 0 0 1 -1.75,1.75 1.75,1.75 0 0 1 -1.75,-1.75 1.75,1.75 0 0 1 1.75,-1.75 1.75,1.75 0 0 1 1.75,1.75 z M 21.75,10.385 A 1.75,1.75 0 0 1 20,12.135 1.75,1.75 0 0 1 18.25,10.385 1.75,1.75 0 0 1 20,8.6350002 1.75,1.75 0 0 1 21.75,10.385 Z m -9.625,0.99021 a 1.75,1.75 0 0 1 -1.75,1.75 1.75,1.75 0 0 1 -1.75,-1.75 1.75,1.75 0 0 1 1.75,-1.7500002 1.75,1.75 0 0 1 1.75,1.7500002 z" />
  <g
     id="g5310">
    <path
       inkscape:connector-curvature="0"
       id="path5147"
       d="M 30.324219,10.523438 A 1.75,1.75 0 0 1 29.625,10.671875 1.75,1.75 0 0 1 28.925781,10.525391 l 0,7.007812 1.398438,0 0,-7.009765 z m -11.115235,1.419921 c -0.183922,1.424699 -0.629101,2.16845 -1.158203,2.603516 -0.695806,0.572143 -1.730888,0.708532 -2.933593,0.830078 -0.01377,0.0014 -0.02916,0.0045 -0.04297,0.0059 -1.182681,0.118886 -2.207191,0.16794 -2.826172,-0.214843 -0.473098,-0.292607 -0.898702,-0.890729 -1.080078,-2.232422 A 1.75,1.75 0 0 1 10.375,13.125 1.75,1.75 0 0 1 9.779297,13.017578 c 0.223397,1.707566 0.81748,2.777197 1.730469,3.341797 0.04866,0.03009 0.105012,0.01594 0.154296,0.04297 -0.07216,0.05117 -0.158326,0.052 -0.228515,0.109375 -0.844348,0.69019 -1.420216,1.796206 -1.648438,3.472656 l 1.408203,0 c 0.198598,-1.285364 0.624189,-1.977701 1.126954,-2.388672 0.681686,-0.557227 1.697359,-0.696464 2.871093,-0.816406 0.0207,-0.0021 0.04386,-0.0018 0.06445,-0.0039 1.203702,-0.122468 2.246763,-0.178047 2.873047,0.205078 0.447205,0.273574 0.847885,0.826323 1.042969,2.013672 l 1.410156,0 c -0.235339,-1.635694 -0.828747,-2.660189 -1.722656,-3.207032 -0.05067,-0.03099 -0.108832,-0.01723 -0.160156,-0.04492 0.0759,-0.05376 0.166518,-0.05462 0.240234,-0.115235 0.861941,-0.70875 1.440827,-1.856292 1.658203,-3.599609 A 1.75,1.75 0 0 1 20,12.134766 1.75,1.75 0 0 1 19.208984,11.943359 Z m 9.65625,9.089844 c -0.103399,1.403081 -0.326304,2.196536 -0.546875,2.578125 -0.29973,0.51854 -0.500042,0.490406 -1.058593,0.589844 -0.558551,0.09944 -1.477775,0.322367 -2.021485,1.25 -0.08184,0.139629 -0.112842,0.393813 -0.18164,0.558594 -0.07208,-0.118509 -0.09527,-0.322149 -0.179688,-0.423828 -0.349381,-0.420826 -0.839238,-0.642706 -1.269531,-0.701172 -0.430293,-0.05847 -0.806506,-2.67e-4 -1.126953,0.04101 -0.320448,0.04128 -0.583387,0.06553 -0.753907,0.04102 -0.170518,-0.02451 -0.246176,-0.04996 -0.380859,-0.214844 -0.196456,-0.240502 -0.447327,-0.927011 -0.570312,-2.257812 l -1.421875,0 c 0.106787,1.558518 0.385792,2.503042 0.908203,3.142578 0.34725,0.425104 0.833727,0.654706 1.265625,0.716797 0.431897,0.06209 0.810682,0.0024 1.132812,-0.03906 0.322131,-0.04149 0.587642,-0.06636 0.759766,-0.04297 0.172124,0.02339 0.246354,0.04933 0.378906,0.208985 0.1924,0.231742 0.440929,0.904627 0.564453,2.208984 l 1.539063,0 c 0.104072,-1.377793 0.325309,-2.157941 0.542968,-2.529297 0.297112,-0.506905 0.498005,-0.479929 1.060547,-0.580078 0.562543,-0.100148 1.484301,-0.331481 2.025391,-1.267578 0.407457,-0.704909 0.650692,-1.700479 0.746094,-3.279297 l -1.41211,0 z M 9.720703,23.484375 c 0.09173,1.542411 0.331256,2.472608 0.779297,3.121094 0.298362,0.431843 0.741706,0.6987 1.148438,0.785156 0.406729,0.08646 0.756352,0.04106 1.037109,0.01367 0.280757,-0.02738 0.493775,-0.03658 0.613281,-0.01172 0.119506,0.02487 0.164102,0.03513 0.285156,0.208984 0.176628,0.253665 0.398718,0.961841 0.507813,2.300782 l 1.421875,0 c -0.09214,-1.532131 -0.332431,-2.456987 -0.78125,-3.101563 -0.299356,-0.429923 -0.742431,-0.694816 -1.148438,-0.779297 -0.406006,-0.08448 -0.755366,-0.03702 -1.035156,-0.0098 -0.279789,0.02729 -0.490591,0.03499 -0.609375,0.0098 -0.118783,-0.02525 -0.165062,-0.03624 -0.287109,-0.21289 -0.178498,-0.258353 -0.402823,-0.97263 -0.511719,-2.324219 l -1.419922,0 z"
       style="color:#000000;font-style:normal;font-variant:normal;font-weight:normal;font-stretch:normal;font-size:medium;line-height:normal;font-family:sans-serif;text-indent:0;text-align:start;text-decoration:none;text-decoration-line:none;text-decoration-style:solid;text-decoration-color:#000000;letter-spacing:normal;word-spacing:normal;text-transform:none;direction:ltr;block-progression:tb;writing-mode:lr-tb;baseline-shift:baseline;text-anchor:start;white-space:normal;clip-rule:nonzero;display:inline;overflow:visible;visibility:visible;opacity:1;isolation:auto;mix-blend-mode:normal;color-interpolation:sRGB;color-interpolation-filters:linearRGB;solid-color:#000000;solid-opacity:1;fill:#ffffff;fill-opacity:1;fill-rule:evenodd;stroke:none;stroke-width:1.39999998;stroke-linecap:butt;stroke-linejoin:miter;stroke-miterlimit:4;stroke-dasharray:none;stroke-dashoffset:0;stroke-opacity:1;color-rendering:auto;image-rendering:auto;shape-rendering:auto;text-rendering:auto;enable-background:accumulate" />
    <path
       inkscape:connector-curvature="0"
       id="path5054"
       d="m 29.275391,8.921875 0,10.361328 c 0,2.57469 -0.294227,3.880978 -0.654297,4.503906 -0.36007,0.622929 -0.739279,0.66015 -1.298828,0.759766 -0.559549,0.09962 -1.301144,0.25958 -1.783204,1.082031 -0.190879,0.325664 -0.319299,0.832355 -0.439453,1.375 -0.137645,-0.466403 -0.272551,-0.928811 -0.492187,-1.193359 -0.295174,-0.355533 -0.681124,-0.528429 -1.046875,-0.578125 -0.365751,-0.0497 -0.714288,-3.16e-4 -1.035156,0.04102 -0.320869,0.04133 -0.613746,0.07297 -0.84961,0.03906 -0.235864,-0.03391 -0.413737,-0.109908 -0.601562,-0.339844 -0.37565,-0.459871 -0.72461,-1.658613 -0.72461,-4.228515 0,-2.635629 -0.629548,-4.021763 -1.669921,-4.658203 -0.289908,-0.177349 -0.628566,-0.185963 -0.949219,-0.257813 0.336526,-0.138593 0.691385,-0.226573 0.988281,-0.470703 1.005612,-0.826888 1.630859,-2.319894 1.630859,-4.972656 l -0.699218,0 c 0,2.544737 -0.577878,3.774582 -1.376953,4.43164 -0.799076,0.657058 -1.918178,0.786636 -3.121094,0.908203 -0.02066,0.0021 -0.04179,0.0077 -0.0625,0.0098 C 13.912024,15.85305 12.813252,15.929116 12.0625,15.464844 11.297757,14.99192 10.724609,13.914155 10.724609,11.375 l -0.699218,0 c 0,2.647407 0.629977,4.042436 1.669921,4.685547 0.286276,0.177035 0.620927,0.186411 0.9375,0.259765 -0.331776,0.136937 -0.681434,0.22129 -0.974609,0.460938 -1.005914,0.822258 -1.632812,2.30893 -1.632812,4.953125 0,2.618499 0.253151,3.935786 0.761718,4.671875 0.254284,0.368045 0.598851,0.571423 0.933594,0.642578 0.334743,0.07116 0.649172,0.03517 0.929688,0.0078 0.280515,-0.02736 0.527618,-0.04563 0.71875,-0.0059 0.191131,0.03977 0.336323,0.111739 0.501953,0.34961 0.331259,0.475741 0.638672,1.693414 0.638672,4.251953 l 0.699218,0 c 0,-2.609159 -0.254111,-3.91858 -0.763672,-4.650391 -0.25478,-0.365905 -0.599212,-0.567141 -0.933593,-0.636719 -0.334382,-0.06958 -0.647703,-0.03317 -0.927735,-0.0059 -0.280031,0.02731 -0.526027,0.04446 -0.716796,0.0039 -0.19077,-0.04055 -0.33778,-0.115021 -0.503907,-0.355469 -0.332253,-0.480895 -0.638672,-1.705374 -0.638672,-4.273437 0,-2.535805 0.576227,-3.757219 1.375,-4.410156 0.788771,-0.64476 1.893908,-0.776162 3.080079,-0.896485 0.01418,-0.0014 0.02881,-5.12e-4 0.04297,-0.002 1.203412,-0.122438 2.32553,-0.211704 3.089844,0.25586 0.764314,0.467563 1.337891,1.535628 1.337891,4.0625 0,2.627597 0.292642,3.951778 0.880859,4.671875 0.294109,0.360048 0.678369,0.537147 1.044922,0.589843 0.366553,0.0527 0.717353,0.0043 1.039062,-0.03711 0.32171,-0.04144 0.614897,-0.07513 0.851563,-0.04297 0.236666,0.03216 0.414803,0.107082 0.601562,0.332031 0.373519,0.449899 0.722657,1.630955 0.722657,4.181641 l 0.699218,0 c 0,-2.554395 0.293584,-3.844944 0.652344,-4.457031 0.358761,-0.612087 0.739237,-0.646123 1.300781,-0.746094 0.561545,-0.09997 1.302453,-0.267902 1.783203,-1.099609 0.480751,-0.831708 0.748047,-2.228518 0.748047,-4.853516 l 0,-10.361328 -0.699218,0 z"
       style="color:#000000;font-style:normal;font-variant:normal;font-weight:normal;font-stretch:normal;font-size:medium;line-height:normal;font-family:sans-serif;text-indent:0;text-align:start;text-decoration:none;text-decoration-line:none;text-decoration-style:solid;text-decoration-color:#000000;letter-spacing:normal;word-spacing:normal;text-transform:none;direction:ltr;block-progression:tb;writing-mode:lr-tb;baseline-shift:baseline;text-anchor:start;white-space:normal;clip-rule:nonzero;display:inline;overflow:visible;visibility:visible;opacity:1;isolation:auto;mix-blend-mode:normal;color-interpolation:sRGB;color-interpolation-filters:linearRGB;solid-color:#000000;solid-opacity:1;fill:#df2621;fill-opacity:1;fill-rule:evenodd;stroke:none;stroke-width:0.69999999;stroke-linecap:butt;stroke-linejoin:miter;stroke-miterlimit:4;stroke-dasharray:none;stroke-dashoffset:0;stroke-opacity:1;color-rendering:auto;image-rendering:auto;shape-rendering:auto;text-rendering:auto;enable-background:accumulate" />
  </g>
</svg>
